Coordinates
version=1
nRows=11
nColumns=46
inDegrees=yes

Units are S.I. units (second, meters, Newtons, ...)
Angles are in degrees.

endheader
time	pelvis_tilt	pelvis_list	pelvis_rotation	pelvis_tx	pelvis_ty	pelvis_tz	bb_angle	bb_tx	bb_ty	bb_tz	hip_flexion_r	hip_adduction_r	hip_rotation_r	knee_angle_r	knee_angle_r_beta	ankle_angle_r	subtalar_angle_r	mtp_angle_r	crank_angle_r	hip_flexion_l	hip_adduction_l	hip_rotation_l	knee_angle_l	knee_angle_l_beta	ankle_angle_l	subtalar_angle_l	mtp_angle_l	crank_angle_l	lumbar_extension	lumbar_bending	lumbar_rotation	arm_flex_r	arm_add_r	arm_rot_r	elbow_flex_r	pro_sup_r	wrist_flex_r	wrist_dev_r	arm_flex_l	arm_add_l	arm_rot_l	elbow_flex_l	pro_sup_l	wrist_flex_l	wrist_dev_l
      5.00500000	    -17.46250488	     -3.32559569	      5.93326350	      0.33222784	      1.12958728	     -0.26284918	      0.00000000	      0.50000000	      0.00000000	      0.25000000	     54.67909029	     -5.67357189	     -2.35245270	     95.83082768	      1.67256347	    -19.08289355	    -15.29853271	      0.00000000	      0.00000000	     51.13497827	     -0.57513851	      8.42659930	     54.16742387	      0.94539989	     -2.52636846	    -10.81722937	      0.00000000	      0.00000000	    -65.32352277	      2.77296238	     -3.74615895	     54.50528233	    -15.74342113	     17.59119425	     70.95873400	     50.95373093	      0.00000000	      0.00000000	     52.81418826	    -17.95156497	     20.86160142	     83.46693386	     50.01477699	      0.00000000	      0.00000000
      5.01000000	    -17.37635997	     -3.88110579	      5.69334955	      0.33234429	      1.12877452	     -0.26324079	      0.00000000	      0.50000000	      0.00000000	      0.25000000	     55.88830128	     -5.30137566	     -2.43191583	     97.98706910	      1.71019698	    -17.10108400	    -14.65270611	      0.00000000	      0.00000000	     49.58745628	     -1.31091761	      8.58770386	     51.98753934	      0.90735373	     -3.67052382	    -10.92959614	      0.00000000	      0.00000000	    -65.28821552	      3.22307227	     -3.33018177	     54.78556413	    -15.65672974	     18.12030395	     70.93413790	     51.01858892	      0.00000000	      0.00000000	     52.29186612	    -18.23003432	     20.42128085	     83.73216547	     50.02266379	      0.00000000	      0.00000000
      5.01500000	    -17.46961735	     -4.46992732	      5.46633903	      0.33209457	      1.12775965	     -0.26359195	      0.00000000	      0.50000000	      0.00000000	      0.25000000	     57.34501727	     -4.97590569	     -2.57992384	    100.05706176	      1.74632517	    -15.30088947	    -14.07848020	      0.00000000	      0.00000000	     48.27423557	     -2.10049618	      8.60719444	     49.85008750	      0.87004816	     -4.86192214	    -10.97321973	      0.00000000	      0.00000000	    -65.07041217	      3.73289092	     -2.89520767	     55.03667964	    -15.44632348	     18.52965066	     70.92406820	     51.08032218	      0.00000000	      0.00000000	     51.80965901	    -18.54704119	     20.03114211	     83.92661551	     50.03019569	      0.00000000	      0.00000000
      5.02000000	    -17.55950030	     -5.15270751	      5.21798044	      0.33181506	      1.12681666	     -0.26391990	      0.00000000	      0.50000000	      0.00000000	      0.25000000	     58.80897537	     -4.60759316	     -2.93363218	    101.94440431	      1.77926551	    -14.23068596	    -14.30406846	      0.00000000	      0.00000000	     46.98395172	     -2.99292136	      8.69422333	     47.83926623	      0.83495271	     -5.54565145	    -10.60388480	      0.00000000	      0.00000000	    -64.88115729	      4.31920788	     -2.14944099	     55.26533377	    -15.32986905	     18.65897848	     70.96154427	     51.10038853	      0.00000000	      0.00000000	     51.58172133	    -18.75475039	     19.91783403	     83.93315327	     50.02493554	      0.00000000	      0.00000000
      5.02500000	    -17.65073909	     -5.45318896	      4.81810186	      0.33178905	      1.12617447	     -0.26392986	      0.00000000	      0.50000000	      0.00000000	      0.25000000	     60.26159027	     -4.38804465	     -2.78342120	    103.81415950	      1.81189889	    -12.08539328	    -13.12798715	      0.00000000	      0.00000000	     45.48991737	     -3.70342845	      8.32198019	     45.62907473	      0.79637759	     -6.96567074	    -10.87391694	      0.00000000	      0.00000000	    -64.77502047	      4.46752542	     -2.00033196	     55.56768885	    -15.29630873	     19.40496402	     70.97012330	     51.19743768	      0.00000000	      0.00000000	     51.05369568	    -19.10125506	     19.44501607	     84.10039057	     50.02139167	      0.00000000	      0.00000000
      5.03000000	    -17.83714897	     -6.04739669	      4.53556159	      0.33162795	      1.12542810	     -0.26419672	      0.00000000	      0.50000000	      0.00000000	      0.25000000	     61.79256875	     -4.15129975	     -3.15428914	    105.43906600	      1.84025886	    -10.96391311	    -13.39814519	      0.00000000	      0.00000000	     44.22974758	     -4.58376372	      8.18558245	     43.63015908	      0.76148993	     -7.66033440	    -10.46015801	      0.00000000	      0.00000000	    -64.50734202	      4.97175229	     -1.37798729	     55.84726579	    -15.22737509	     19.58552768	     71.01681143	     51.22446686	      0.00000000	      0.00000000	     50.79267243	    -19.32533456	     19.30971322	     84.10597388	     50.01493913	      0.00000000	      0.00000000
      5.03500000	    -17.92846742	     -6.16884138	      4.06993425	      0.33160869	      1.12497097	     -0.26429692	      0.00000000	      0.50000000	      0.00000000	      0.25000000	     63.27842029	     -4.11020184	     -2.93559013	    107.06380021	      1.86861582	     -9.28959587	    -12.39123655	      0.00000000	      0.00000000	     42.69739869	     -5.18757489	      7.57240041	     41.58472888	      0.72579044	     -8.84868136	    -10.47163137	      0.00000000	      0.00000000	    -64.40515891	      5.06949158	     -1.37273968	     56.37571086	    -15.22482556	     20.73969118	     70.86954576	     51.34433909	      0.00000000	      0.00000000	     50.25000488	    -19.76715780	     18.62936918	     84.43990046	     50.02456178	      0.00000000	      0.00000000
      5.04000000	    -18.12501580	     -6.53617619	      3.56824871	      0.33160966	      1.12449605	     -0.26410917	      0.00000000	      0.50000000	      0.00000000	      0.25000000	     64.84351318	     -3.85353508	     -3.04151128	    108.44885523	      1.89278959	     -8.28267403	    -12.26081359	      0.00000000	      0.00000000	     41.41519252	     -6.05996147	      6.94927880	     39.75924060	      0.69392966	     -9.57961070	     -9.86621044	      0.00000000	      0.00000000	    -64.22405837	      5.25746163	     -0.92845918	     56.63438210	    -15.16764134	     21.21783643	     70.79688081	     51.39363622	      0.00000000	      0.00000000	     49.82603109	    -20.08518099	     18.33271292	     84.52238004	     50.02288992	      0.00000000	      0.00000000
      5.04500000	    -18.28199789	     -6.81104632	      3.09250881	      0.33160516	      1.12418325	     -0.26398499	      0.00000000	      0.50000000	      0.00000000	      0.25000000	     66.36339876	     -3.67779483	     -3.08676151	    109.71713758	      1.91492530	     -7.24273221	    -12.06058568	      0.00000000	      0.00000000	     40.09656994	     -6.83515873	      6.28245942	     38.05005832	      0.66409880	    -10.29265381	     -9.31209848	      0.00000000	      0.00000000	    -64.10767594	      5.44472384	     -0.56389720	     56.96704820	    -15.13942542	     21.69225996	     70.75848409	     51.44535148	      0.00000000	      0.00000000	     49.48005968	    -20.38478174	     18.00622920	     84.57618726	     50.01233782	      0.00000000	      0.00000000
      5.05000000	    -18.50286965	     -7.16453477	      2.73763807	      0.33148782	      1.12386817	     -0.26404495	      0.00000000	      0.50000000	      0.00000000	      0.25000000	     67.91815666	     -3.65603552	     -3.35645459	    110.84266631	      1.93456948	     -6.22188918	    -12.19140884	      0.00000000	      0.00000000	     38.96035973	     -7.55172864	      5.82252740	     36.53262989	      0.63761468	    -10.83352041	     -8.76679907	      0.00000000	      0.00000000	    -63.95212034	      5.78983504	     -0.04322152	     57.29468509	    -15.12202260	     21.84025670	     70.81200450	     51.46845163	      0.00000000	      0.00000000	     49.29226503	    -20.62354056	     17.84980677	     84.54740943	     49.99768915	      0.00000000	      0.00000000
      5.05500000	    -18.52611894	     -7.14626646	      2.02856220	      0.33184870	      1.12416083	     -0.26351017	      0.00000000	      0.50000000	      0.00000000	      0.25000000	     69.27871137	     -3.39339328	     -3.04002683	    111.88242565	      1.95271670	     -5.13497265	    -11.39976267	      0.00000000	      0.00000000	     37.42818342	     -8.24346830	      4.55594920	     34.96679035	      0.61028562	    -11.58813743	     -8.07608121	      0.00000000	      0.00000000	    -64.02289131	      5.55868185	      0.13439983	     57.60455710	    -15.15221644	     22.56653001	     70.79916222	     51.55119834	      0.00000000	      0.00000000	     48.93031441	    -20.97916421	     17.41490946	     84.55620096	     49.97142207	      0.00000000	      0.00000000
